<svg id="e766f911-b822-42b3-a21f-a61373e17259" data-name="Layer 1" xmlns="http://www.w3.org/2000/svg" viewBox="0 0 90.71 73.7"><path d="M61.88,39.43H39.42a1.7,1.7,0,0,0,0,3.4H61.81a1.75,1.75,0,0,0,1.7-1.7A1.67,1.67,0,0,0,61.88,39.43Z" fill="#f58020"/><path d="M61.88,48.49H39.42a1.7,1.7,0,0,0,0,3.4H61.81a1.75,1.75,0,0,0,1.7-1.7A1.53,1.53,0,0,0,63.09,49,1.67,1.67,0,0,0,61.88,48.49Z" fill="#f58020"/><path d="M61.88,57.54H39.42a1.7,1.7,0,0,0,0,3.4H61.81a1.75,1.75,0,0,0,1.7-1.7,1.56,1.56,0,0,0-.42-1.17A1.71,1.71,0,0,0,61.88,57.54Z" fill="#f58020"/><path d="M30.71,70.07h39.8a1.72,1.72,0,0,0,1.7-1.7V30.46a1.34,1.34,0,0,0-.45-1.17L59.33,16.86a1.76,1.76,0,0,0-1.17-.52H48.44l0-.11a15.07,15.07,0,0,0-29.93,2.51A15,15,0,0,0,28.93,33.08l.08,0V68.37A1.75,1.75,0,0,0,30.71,70.07Zm27.6-49.45.22.21L68,30.31h-9.7Zm-9.68-.77v-.11h6.27V32a1.75,1.75,0,0,0,1.7,1.7H68.88v33H32.48v-33h.13c.18,0,.34,0,.5,0a3.73,3.73,0,0,0,.48,0A15.19,15.19,0,0,0,48.63,19.85ZM21.88,18.74A11.64,11.64,0,1,1,33.52,30.38,11.65,11.65,0,0,1,21.88,18.74Z" fill="#f58020"/><path d="M31.91,19.69l-.09-.09-2.18-2.17a1.71,1.71,0,0,0-2.42,0,1.75,1.75,0,0,0,0,2.42l3.51,3.5a1.78,1.78,0,0,0,1.18.53,1.52,1.52,0,0,0,1.16-.51l6.68-6.68a1.9,1.9,0,0,0,.6-1.37,1.53,1.53,0,0,0-.53-1.12h0a1.73,1.73,0,0,0-2.42,0Z" fill="#5cb8b2"/></svg>