<svg id="f52c2dcf-69f6-4ad6-a7bf-ed892b9ee736" data-name="Layer 1" xmlns="http://www.w3.org/2000/svg" viewBox="0 0 90.71 73.7"><path d="M71.33,71.63H19.38a1.45,1.45,0,0,1-1.45-1.45V3.52a1.45,1.45,0,0,1,1.45-1.45H58.11a1.45,1.45,0,0,1,1.08.48L72.41,17.3a1.45,1.45,0,0,1,.37,1V70.18A1.45,1.45,0,0,1,71.33,71.63Zm-50.5-2.9H69.88V18.82L57.46,5H20.83Z" fill="#f58020"/><path d="M71.33,19.72H58.11a1.45,1.45,0,0,1-1.45-1.45V3.52a1.45,1.45,0,0,1,2.53-1L72.41,17.3a1.45,1.45,0,0,1-1.08,2.42Zm-11.77-2.9h8.52L59.56,7.31Z" fill="#f58020"/><path d="M46.22,14.06H27.39a1.45,1.45,0,1,1,0-2.9H46.22a1.45,1.45,0,1,1,0,2.9Z" fill="#f58020"/><path d="M37.56,22.71H27.39a1.45,1.45,0,1,1,0-2.89H37.56a1.45,1.45,0,1,1,0,2.89Z" fill="#f58020"/><path d="M42.24,59.21a5.16,5.16,0,1,1,5.15-5.16A5.16,5.16,0,0,1,42.24,59.21Zm0-7.41a2.26,2.26,0,1,0,2.26,2.25A2.25,2.25,0,0,0,42.24,51.8Z" fill="#5cb8b2"/><path d="M32.66,41.35a6,6,0,1,1,6-6A6,6,0,0,1,32.66,41.35Zm0-9.09a3.1,3.1,0,1,0,3.09,3.09A3.1,3.1,0,0,0,32.66,32.26Z" fill="#5cb8b2"/><path d="M58.66,44.72a5.39,5.39,0,1,1,5.39-5.39A5.4,5.4,0,0,1,58.66,44.72Zm0-7.87a2.49,2.49,0,1,0,2.49,2.48A2.48,2.48,0,0,0,58.66,36.85Z" fill="#5cb8b2"/><path d="M40,52.58a1.47,1.47,0,0,1-1.34-.87l-5.14-11.8a1.45,1.45,0,0,1,2.66-1.15l5.14,11.79a1.45,1.45,0,0,1-1.32,2Z" fill="#5cb8b2"/><path d="M45.33,53.47A1.43,1.43,0,0,1,44.27,53a1.44,1.44,0,0,1,.08-2L55,41.14a1.45,1.45,0,1,1,2,2.13L46.31,53.09A1.45,1.45,0,0,1,45.33,53.47Z" fill="#5cb8b2"/></svg>